<?xml version="1.0" encoding="utf-8"?>
<!-- Generator: Adobe Illustrator 23.0.2, SVG Export Plug-In . SVG Version: 6.00 Build 0)  -->
<svg version="1.1" id="レイヤー_1" xmlns="http://www.w3.org/2000/svg" xmlns:xlink="http://www.w3.org/1999/xlink" x="0px"
	 y="0px" viewBox="0 0 60 60" style="enable-background:new 0 0 60 60;" xml:space="preserve">
<style type="text/css">
	.st0{fill:#DCDDDD;}
	.st1{fill:#FFFFFF;}
	.st2{display:none;fill:none;stroke:#666666;stroke-width:2.16;stroke-linecap:round;stroke-linejoin:round;}
</style>
<title>ic_tel</title>
<rect x="0.4" y="-0.1" class="st0" width="60" height="60"/>
<path d="M18.1,7.6h24.6c1,0,1.7,0.8,1.7,1.7v41.1c0,0.9-0.8,1.7-1.8,1.7H18.1c-1,0-1.8-0.8-1.8-1.7V9.4C16.3,8.4,17.1,7.6,18.1,7.6
	L18.1,7.6z M26.9,11.1L26.9,11.1c0,0.3,0.2,0.5,0.5,0.5l0,0h6c0.3,0,0.5-0.2,0.5-0.5l0,0c0-0.3-0.2-0.5-0.5-0.5h-6
	C27.1,10.5,26.9,10.8,26.9,11.1C26.9,11.1,26.9,11.1,26.9,11.1z M27.7,48.7c0,1.4,1.2,2.6,2.6,2.6c1.5,0,2.6-1.1,2.6-2.5
	c0-1.4-1.2-2.6-2.6-2.6C28.9,46.2,27.8,47.3,27.7,48.7L27.7,48.7z"/>
<path id="path-3" class="st1" d="M20.2,14.5h20.4c0.2,0,0.4,0.2,0.4,0.3V45c0,0.2-0.2,0.3-0.4,0.3H20.2c-0.2,0-0.4-0.2-0.4-0.3V14.8
	C19.8,14.6,20,14.5,20.2,14.5z"/>
<path class="st2" d="M39.4,33.7c2.1-2.1,2.1-5.4,0-7.5"/>
<path class="st2" d="M46.3,37.5c4.1-4.1,4.2-10.8,0-15c0,0,0,0,0,0"/>
<path class="st2" d="M52.3,45c8.3-8.3,8.3-21.7,0-29.9c0,0,0,0,0,0"/>
</svg>
