<svg xmlns="http://www.w3.org/2000/svg" viewBox="0 0 718.6 122.06"><g id="レイヤー_2" data-name="レイヤー 2"><g id="レイヤー_1-2" data-name="レイヤー 1"><path d="M.32,44.77a83.75,83.75,0,0,0,28.19-9.29c-7.56,1-16.31,2-25.22,2.91l-.48-.27L.86,32.35l.27-.49c2.81-.11,6-.32,9.35-.54v-18l-.17-6.27.44-.37,6,.16h4.32c.54-2.16,1-4.27,1.35-6.7L23,0l7.78,1.46.21.54C30.35,3.62,29.7,5.29,29,6.86h7.29l6.05-.16.43.37-.16,6.27v9.45A49.26,49.26,0,0,0,46,18h.59L52,21.71v.59a56.79,56.79,0,0,1-9.29,10.64l.22,11.34c0,6-2.27,7.29-11.4,7.29-1.13,0-1.24-.11-1.46-.65L27.49,44.6c1.94,0,4.69-.05,5.72-.1,1.19-.11,1.46-.38,1.46-1.57V39.26A77.67,77.67,0,0,1,5.72,51.19a1.58,1.58,0,0,1-1.94-.81ZM34.67,12.85H18.14V15H34.67Zm0,7.4H18.14v2.27H34.67Zm0,7.51H18.14v3c5.51-.43,11-1,16.53-1.57Z"/><path d="M67.45,35.21A51.59,51.59,0,0,0,75,27,74.46,74.46,0,0,0,81,17.55H78.41l-8.69.16-.38-.38V11.12l.38-.37,8.69.16h4.65V.7l.38-.38H90L90.4.7V10.91h6l8.74-.16.33.37v6.21l-.33.38-8.74-.16H92.83a49.82,49.82,0,0,0,14,17.28l-4.75,6.37a.92.92,0,0,1-.7.43,1.35,1.35,0,0,1-1-.59q-1.71-2-3.24-4v5.08l-.27.27L91,42.17h-.6l.22,9.89H82.79L83,42.17h-.48l-6.16.17L76,42V37.37a44.28,44.28,0,0,1-3.67,4.21,1.15,1.15,0,0,1-.81.43.92.92,0,0,1-.7-.43l-3.35-4.21V52.06H59.89l.27-16.69v-6a29.6,29.6,0,0,1-2,3.94.91.91,0,0,1-.7.54c-.27,0-.49-.22-.6-.6l-2-7.45A77,77,0,0,0,64,.59l.48-.27,6.75,1.46.27.49a114.34,114.34,0,0,1-4,13.07Zm15.07.92h.59l.27-11A56.3,56.3,0,0,1,77.06,36ZM96.45,36A50.54,50.54,0,0,1,90.08,24l.21,12.1H91Z"/><path d="M131,43.23c10.53-1.77,15.29-6.81,15.29-12.69,0-7.45-4.12-12.15-9.12-13.18-1,9.26-4.16,17.88-7.54,22.83-2.65,3.87-5.39,5.29-9.21,5.29-2.94,0-5-1.42-6.91-4.36a15.52,15.52,0,0,1-2.4-8.87c0-11.85,8.86-21.46,22.34-21.46S154,19.76,154,30.64c0,8.91-6.27,15.67-16.66,18.12a1.6,1.6,0,0,1-1.57-.49Zm-13.13-11a7.26,7.26,0,0,0,.83,3.73c.54,1,1.22,1.61,2,1.61,1.13,0,2.55-1.12,3.87-3.77a48.94,48.94,0,0,0,4.85-16.66C122.32,18.39,117.91,24.71,117.91,32.25Z"/><path d="M188.15,1.46l.38-.43h6l.38.37V9.72l1.24-1.46h.65l.33.22a51.57,51.57,0,0,0,2.32-6.7l.65-.16L203.86,3l.22.7a65.45,65.45,0,0,1-3.19,7.45c.33.27.65.49.92.71Q203,9.31,204.08,7l.65-.22,4.21,2.05.05.6c-1.29,2.43-2.75,5.07-4.26,7.56l.27-.27,3-.65.43.21a28.2,28.2,0,0,1,2.54,7.35l-.44.43-3.94,1.08-.43-.32a11.72,11.72,0,0,0-.27-1.52c-2.32.49-5.08.92-9,1.57l-.48-.38-.92-2.64a58.46,58.46,0,0,0,.7,6.15h4.16A15.91,15.91,0,0,0,199.06,26l.21-.49L203.11,24l.43.1a20.13,20.13,0,0,1,2.59,3.78l3.78-.05.38.32v5.19l-.38.32-8-.16h-4.7a28.54,28.54,0,0,0,1.46,4.21l.11.16A33.77,33.77,0,0,0,201.86,34l.49-.05,4.32,2.91.05.65a33.93,33.93,0,0,1-4.91,5.56c.86,1,1.62,1.51,2.27,1.51.86,0,1.29-.59,1.73-4.91l4.05,2.65a1.33,1.33,0,0,1,.75,1.45c-.7,5.46-2.16,7.89-6.42,7.89-2.22,0-4.86-.86-7.73-4.59a39.13,39.13,0,0,1-9.28,4.16,1.48,1.48,0,0,1-.65.11,1.26,1.26,0,0,1-1.08-.71l-3.08-4.21a37.38,37.38,0,0,0,11-4.64l-.49-1a41.27,41.27,0,0,1-2.38-7.35h-5.94c-.05,1.24-.16,2.43-.32,3.67l1.89-1.46.54.06a26.4,26.4,0,0,1,4.64,3.67l.06.54-4,3.46h-.59a40.41,40.41,0,0,0-3.13-3,19.69,19.69,0,0,1-6.75,10.63c-.22.22-.38.33-.54.33s-.27-.11-.44-.22l-4.75-3.89.11,4.76h-7.18l.48-18.69a41.81,41.81,0,0,1-2.16,5.84c-.16.32-.37.48-.59.48a1.06,1.06,0,0,1-.81-.59l-3.19-5.4A62.86,62.86,0,0,0,164.17,17l-5.07.16-.38-.32V11l.32-.32,5.4.16V.7l.27-.32h5.89l.32.32V10.75l2.81-.06,2.11-2.54h.64a6.28,6.28,0,0,0,.6.38,66.93,66.93,0,0,0,2.64-6.91l.65-.11,3.73,1.41.21.7c-1,2.59-2.26,5.18-3.45,7.56.32.27.7.54,1,.81.76-1.57,1.46-3.08,2-4.32l.54-.16,3.73,1.83ZM185.88,26.3l-.43-.33c-.06-.48-.16-1-.27-1.62-2.65.54-5.89,1-9.07,1.46l-.49-.38-1.3-4.05.38-.43c.87-.05,1.68-.05,2.43-.11.81-1.4,1.57-2.8,2.38-4.21-1.46-1.29-2.92-2.48-4.48-3.62V16.9l-.27.27-3.84-.11v4.81L172,21h.49a58.77,58.77,0,0,1,4.59,6.85l5.61.11h6.75c-.16-.86-.21-1.72-.32-2.54ZM175,33.64l-.38-.32V30.46l-1.29,1.08-.43-.06c-.54-1.13-1.19-2.48-2-3.83v4.21l.27,15.23a19.72,19.72,0,0,0,4.54-4.92A18.37,18.37,0,0,0,178,33.59Zm7.78-13.34c.65-.05,1.29-.1,1.94-.21a12.26,12.26,0,0,0-.65-1.84C183.61,19,183.18,19.66,182.75,20.3Zm4.7-3.34c.37.75.75,1.62,1.08,2.48-.17-2.81-.27-5.56-.33-8.37-1.08,2.11-2.27,4.16-3.51,6.16l2.32-.49Zm10,2.91c.65-1.13,1.3-2.21,1.89-3.4C198,15.23,196.52,14,195,12.85c.05,2.38.16,4.81.32,7.13C196.09,19.93,196.79,19.93,197.49,19.87Zm5.72-.54c.71-.11,1.41-.16,2.11-.27-.22-.65-.43-1.29-.7-1.94C204.13,17.88,203.65,18.63,203.21,19.33Z"/><path d="M213.64,11.77c1.56,0,3,0,4.37-.11A80,80,0,0,0,221.84.22l.44-.22,7.18,1.84.21.54c-1.24,3.07-2.59,6-4,8.91,1.84-.11,3.68-.27,5.57-.44-.6-1.08-1.25-2.1-2-3.29l.11-.43,5.18-2.32.59.16a84.83,84.83,0,0,1,6.38,10.26L241.5,13V1.51l.38-.43h6.59l.43.38v6.8a51.59,51.59,0,0,0,9.29-4.75l.54,0,4.1,4.48v.59a80.15,80.15,0,0,1-13.93,6.1V16.9c0,1.68,0,1.68,3.56,1.68,4.92,0,5.35-.33,5.67-5l5.94,2.27c.54.21.6.37.54.91-.21,3.46-.7,5-2.16,6.32s-3.4,2.11-10.47,2.11c-9.13,0-10.64-.6-10.64-7l0-2.05-5.83,2.86-.49-.16c-.37-1-.81-1.89-1.18-2.75a175.93,175.93,0,0,1-18.53,2.05l-.43-.32-1.62-5.68Zm10.09,28.84V51.25h-7.29l.27-12.8v-12l-.16-6.7.38-.37,6.91.16h7.4l6.91-.16.38.37-.16,6.7v8.59l.27,9.72c0,5.18-3,6.42-9,6.42-.81,0-.92-.11-1.13-.59l-2.38-5.89c1.67,0,3.24-.05,4.32-.16.7,0,.92-.27.92-1.13V40.61Zm7.62-15.55h-7.62V27.7h7.62Zm0,7.83h-7.62v2.53h7.62Zm17.55-.17A64.47,64.47,0,0,0,258.19,28l.54-.06,4.1,4.49v.59a80.15,80.15,0,0,1-13.93,6.1v3.13c0,1.68,0,1.68,3.56,1.68,4.92,0,5.35-.33,5.67-5.24L264.07,41c.54.21.6.38.54.92-.21,3.45-.7,5.34-2.16,6.69s-3.4,2.11-10.47,2.11c-9.13,0-10.64-.6-10.64-7l.16-5.29V26.84l.38-.43h6.59l.43.38Z"/><path d="M268.32,32.3c5.38-4.36,9.17-8.06,12-12.24-2.31.19-4.71.24-7,.24L273,20l-.2-5.9.34-.29c3.6,0,7.15-.09,10.71-.33a50.36,50.36,0,0,0,2.25-6.44l.39-.24,6.57,1,.29.34c-.58,1.68-1.15,3.12-1.68,4.51,2.4-.38,4.8-.81,7.2-1.39l.43.24.48,5.66-.29.44c-3.5.72-7.44,1.34-11.42,1.82-.77,1.15-1.82,2.64-2.78,3.79a14.09,14.09,0,0,1,4.51-.62,5.88,5.88,0,0,1,5.85,4.61c3-1.15,6.44-2.35,10.18-3.6l.48.19,3,5.9-.24.44c-4.85,1.24-9,2.49-12.53,3.79.09,1.87.14,4.22.19,6.53l-.34.28-6.33.24-.39-.28V36.72c-2.92,1.39-4.56,2.74-4.56,4.37s1.92,2.06,6.2,2.11a85,85,0,0,0,12.53-1l.48.29.43,6.39-.29.38c-4.56.38-8.59.62-14.21.62-9.7,0-12.24-4.08-12.24-8.2,0-4.61,3.89-7.83,8.35-10.37q1.31-.72,2.88-1.44a2.12,2.12,0,0,0-2.4-1.83,9.19,9.19,0,0,0-5.47,1.68A70.79,70.79,0,0,0,273,37.49l-.48,0-4.23-4.71Z"/><path d="M313.94,26.51l-.38-.32V21l.33-.27,6.59.16H357.9l6.32-.16.32.27v5.19l-.38.37-6.26-.16H339.54V38.67l.16,7.88a34.65,34.65,0,0,0,7.07-3.94,29.13,29.13,0,0,1-4.1-6.43l.16-.49,5-2h-.7l-6.1.16-.38-.1V28.3L341,28l5.88.16h10.48L359.3,28l2.27,2.27a1.5,1.5,0,0,1,.6,1.14,4.05,4.05,0,0,1-.22,1,30.25,30.25,0,0,1-5.51,10,33.24,33.24,0,0,0,8.53,3.4l-3.45,5.45c-.22.38-.38.54-.7.54a1.78,1.78,0,0,1-.65-.16,31.32,31.32,0,0,1-8.54-4.43,34.33,34.33,0,0,1-7,4.38,2.37,2.37,0,0,1-.92.32c-.38,0-.54-.27-.92-.76l-3.13-3.72.11,4.7h-7.45l.1-5.08c-4.75,1-10,1.94-16.74,3l-.43-.16L313.4,44.6l.38-.48c1.84-.16,3.62-.38,5.4-.59V26.41ZM357.2,11.45l.16,7.61-.49.38-7.4-.16H329l-8.11.16-.37-.38.16-7.4V9l-.16-6.42.37-.33,8.37.17h19.71l8-.17.43.44-.16,6.58ZM326,26.35v2.27h6.65V26.35ZM326,33v2.26h6.65V33Zm0,9.71c2.22-.26,4.38-.54,6.59-.91l.06-2.16H326ZM349.53,7H328.09V8.86h21.44Zm-21.44,7.61h21.44V12.85H328.09Zm20.25,19.23a25.57,25.57,0,0,0,3,4.32,18.78,18.78,0,0,0,2.53-4.54h-6Z"/><path d="M398.36,21.22C402.57,32.72,409.81,40.5,420.5,45l-5.45,6.32a.86.86,0,0,1-.6.37,1.61,1.61,0,0,1-.64-.21A40,40,0,0,1,394.58,30a29.13,29.13,0,0,1-3.73,8.7A35.66,35.66,0,0,1,375.3,52a2.3,2.3,0,0,1-.75.22,1,1,0,0,1-.6-.27l-5.61-5.57a34.18,34.18,0,0,0,15.6-11.88,29.69,29.69,0,0,0,4.65-13.23h-9.13l-9,.16-.38-.37V14.42l.38-.38,9,.16h9.61V1.46l.38-.38h7.72l.38.38V14.2h11.61l9-.16.38.38V21l-.38.37-9-.16Z"/><path d="M432.23,30.56l.38,21.17h-7.77l.37-21.17v-20l-.16-8.1.38-.38,7,.16h5.29L441,2.05l2.54,2.76c.27.27.38.81.22,1.72A114.08,114.08,0,0,1,440,20.2c3,4.8,4.1,7.77,4.1,12.47,0,5.78-3.46,8.91-8.26,8.91-.81,0-1-.16-1.3-.81l-1.94-6.1c3.67,0,4.43-.54,4.43-3.4,0-2.11-.49-5-3.68-10.16a1.51,1.51,0,0,1-.16-.64,2.85,2.85,0,0,1,.11-.65,95.45,95.45,0,0,0,2.65-10.91h-3.68ZM460,45.42c0,1-.21,1.29-1.13,1.62a152,152,0,0,1-17.55,4.8l-.48-.27-2.17-6.21.27-.48c2.06-.33,4.06-.65,6-1V10.42l-.16-7,.38-.33,7,.16H463.5l6.91-.16.44.43-.17,6.59V19.6l.17,7.72-.49.38L464,27.54h-1.89a37.29,37.29,0,0,0,2,5.83,47.59,47.59,0,0,0,4.75-5.07h.54l4.91,4.53-.05.54a61,61,0,0,1-7.08,5.35,28.47,28.47,0,0,0,8.05,6.64l-4.7,5.18c-.43.49-.7.71-1,.71a1.67,1.67,0,0,1-1-.49A30.67,30.67,0,0,1,460,40.93Zm3.41-36.29H452.16v3.29h11.29Zm-11.29,9v3.51h11.29V18.14Zm7,21.12a51,51,0,0,1-3.94-11.72h-3.08v14.8a72.48,72.48,0,0,0,7.51-2.11Z"/><path d="M483.31,9.89l6.63.91.29.38c-.15,2.79-.77,5.52-2.21,10.42a43.81,43.81,0,0,0-1.78,11.14,22.67,22.67,0,0,0,.29,4.84c.14.63.62.68,1.34,0a39.1,39.1,0,0,0,2.45-3.12l1.39.72a32.84,32.84,0,0,0-2.25,10.12c0,2.16-1.11,3.51-3.31,3.56-1.92,0-3.08-1-4.18-2.93s-2.4-5.67-2.4-12.58a67.53,67.53,0,0,1,2.11-14.59,40.52,40.52,0,0,0,1.25-8.55ZM518,45.41a74.67,74.67,0,0,1-11.28.77c-9.65,0-12.19-4.85-13.35-10.18l.24-.43,5.14-2.35.43.14c.92,4.51,2.79,6,9.22,5.9a56.3,56.3,0,0,0,9-1l.43.28.43,6.44ZM497.09,14.73c1.58,0,3.12.1,4.61.1a78.36,78.36,0,0,0,13.54-1.15l.33.29.29,6-.29.39a70.85,70.85,0,0,1-13.87,1.2c-1.54,0-3,0-4.56-.1l-.34-.43v-6Z"/><path d="M541.9,26.89l6.59-.1.49.37a157.63,157.63,0,0,1-1.52,15.77c-.59,3.46-1.29,5.4-2.43,6.75-1.35,1.51-4.1,2.16-7.66,2.16h-3.84c-.7,0-.92-.16-1.13-.76l-2.59-7c1.72.05,4.26.11,7,0,1.78-.11,2.32-.44,2.65-2a61.41,61.41,0,0,0,1.08-9h-10c-.22,1.13-.38,2.21-.6,3.34l-7.39-.81a196.27,196.27,0,0,0,2.7-21.16l.48-.33,5.13.27h9.29V8.53H529.81l-6.54.16-.38-.32v-6l.38-.33,6.54.16h10.53l7.39-.16.38.33L548,8.26v6.43l.16,5.88-.38.33-7.39-.16h-8.21c-.22,2.05-.43,4.1-.7,6.15Zm25.33,6.21.27,19h-8.59l.27-19V.81l.38-.38h7.29l.38.38Z"/><path d="M578.66,22.41A52,52,0,0,0,595.4,20c-.86-1.51-1.78-3-2.75-4.48a67.82,67.82,0,0,1-13.88,2l-.43-.38L577,11.23l.22-.43a61.24,61.24,0,0,0,11.12-1.51c-1.08-1.57-2.32-3.19-3.67-5l0-.54,7-2.38.54.22c1.35,1.78,2.59,3.62,3.89,5.45a61.1,61.1,0,0,0,8.58-3.94l.54.06,3.3,5.61-.06.54a83.08,83.08,0,0,1-8.37,3.84c.76,1.29,1.41,2.26,2.54,4.1A69.69,69.69,0,0,0,611,12.74l.48.06,3.78,5.61-.16.54c-2.75,1.73-6.16,3.51-8.64,4.76,1.35,2.43,2.59,4.69,3.67,6.69a8,8,0,0,1,1,3.89,4.7,4.7,0,0,1-4.43,4.54,5,5,0,0,1-2.59-.92c-1.84-1.35-4.38-2.49-8.75-3.62l.11-1.67c1.78-.16,3.45-.38,5.72-.7.38-.06.54-.28.33-.71-.71-1.35-1.62-3-2.43-4.53-5.78,1.89-11.13,2.7-19.07,2.59l-.37-.27-1.35-6.16Zm-1,19.17,4.49-4.81.48.06c3.78,4.21,10.1,5.29,17.07,5.29a60.34,60.34,0,0,0,6.15-.32l.43.43.17,7.51-.44.37c-2.64.17-4.48.22-6.58.22-11.34,0-17.5-2.92-21.77-8.21Z"/><path d="M659,41.47V30.4l.38-.38h7.34l.33.44V40l.27,11.83H659V48.33H629.68v3.46h-8.1L621.85,40V30.4l.38-.38h7.12l.33.44v11H640V26.57H632.7l-8.1.16-.38-.38.17-9.12V7.34l.37-.37h7l.37.37V19.87H640V1.51l.38-.43h7.29l.38.38V19.87h8V7.34l.38-.37h7.24l.37.37V17l.17,9.39-.49.38-7.94-.16H648v14.9Z"/><path d="M680.53,45.79c7.83-1.62,12.75-5,14.15-8.37-.7.7-2.22,1.25-5.18,1.25-5,0-7.67-2.6-7.67-6.43,0-6.43,5-12.21,9.72-12.21a10.19,10.19,0,0,1,2.7.27c0-1.18,0-2.21-.06-3.51-6.91.38-14.2,1-21.81,1.89l-.44-.32-.54-6.8.38-.49c7.51-.54,15.18-1.08,22.41-1.46V2.32l.33-.38H702l.43.44c0,2.48-.11,4.69-.16,6.75,5.4-.22,10.8-.44,15.93-.49l.43.38v6.75l-.43.38c-5.35,0-10.75.05-16,.27,0,3,0,6.1.16,9.77a21.82,21.82,0,0,1,1.19,6.59,17.14,17.14,0,0,1-2.27,8.85c-2.65,4.76-7.29,7.73-12.42,9.4-.22,0-.38.11-.54.16a1.94,1.94,0,0,1-.76.11,1.65,1.65,0,0,1-.86-.27Zm11.61-19.38c-1.51,0-3.29,2.32-3.29,4,0,1,.32,1.52,1.73,1.52,2.21,0,3.78-.92,3.88-3.41C694.08,27,693.22,26.41,692.14,26.41Z"/><path d="M36.34,75.83l9.4-.16.43.38c-.11,9.23-.32,17.17-1,23.16-.81,7-2.43,9.24-9.07,9.24H33.8a1.45,1.45,0,0,1-1.56-1l-1.41-2.86-5.94-.16H15.07v7.94c0,1.29.21,1.56,12.63,1.56,12,0,13.56-.27,14.64-1.13s1.29-2.22,1.56-5.67L50.28,110c.59.28.64.44.59,1.08-.27,4-1,6-2.59,7.24-2.27,1.89-4.11,2.27-21.17,2.27-18.79,0-19.71-1-19.71-5.94l.11-5.94v-4.64l-.17-5.62.38-.38,6.05.16h9.94V92.73h-7l-7.08.17-.38-.33V89.28c-.81,1-1.56,1.94-2.32,2.75a1.18,1.18,0,0,1-.86.49,1.63,1.63,0,0,1-.92-.38L0,88.47A52,52,0,0,0,12.15,69.89l.43,0,6.86,2.21,0,.6c-.48,1.08-1,2.16-1.51,3.18Zm-22.25,6.7c-.81,1.29-1.67,2.54-2.59,3.78l5.19.11h8.15l6.1-.17.38.38-.16,5.24v6.75l.05,2.65c1.08,0,2.16,0,2.87-.06,2.05-.16,2.8-1,3.18-4.7s.54-9.72.59-14Z"/><path d="M80.9,91.87,73.34,92,73,91.71V87.39l-4.37-.11v7.13c2.16-.6,4.15-1.24,5.77-1.78l.11,5.4c0,1-.21,1.35-1.13,1.67-1.24.49-2.92,1-4.75,1.62v.81l.27,11.77c0,6.38-2.16,8.16-9.72,8.16-.65,0-.81-.11-1-.65l-3-6.75a38.3,38.3,0,0,0,4.75-.22c1.13-.11,1.46-.43,1.46-1.73v-9.12c-1.57.49-3.08.92-4.43,1.29l-.49-.26L54.22,98.3l.27-.49c2.16-.43,4.48-1,6.81-1.51V87.23l-6,.16-.38-.33V81.18l.33-.33,6,.17V70.7l.43-.43H68.1l.49.38V81l5-.11.33.27v4.27l7,.16h4.21V79.67c-2.75.27-5.51.54-8,.7-.7,0-1.08-.06-1.4-.65l-3.08-5.35a124.15,124.15,0,0,0,24.84-3.18l.54,0a59,59,0,0,1,5.94,4.86l-.11.54c-3.29.7-7,1.41-10.85,2v6.91h5.51l7.13-.16.32.27v6.1l-.32.27-7.13-.16H92.94v6.75h2.38l6.8-.16.38.38-.16,5.72V110l.27,11.07h-8v-3.4H83.44v3.73H75.61l.32-11.61v-5.24l-.22-5.72.38-.38,6.86.16h2.16V91.87Zm13.66,12.58H83.44v7.08H94.56Z"/><path d="M117.54,115.36v3.94h-7l.27-18.14v-14l-.16-7,.32-.38,5,.16a74.63,74.63,0,0,0,2-9l.38-.27,7.29,1.14.22.48a80.58,80.58,0,0,1-2.7,7.67h1.46l5.61-.16.38.38-.16,7v1.4a57,57,0,0,0,8.53-18l.43-.11,7.08,1.78.1.59c-.75,2.38-1.51,4.54-2.37,6.59h5.67l8.32-.16.43.38c0,13.71-.17,24.35-1,32.56-.76,7-3.73,9.94-9.94,9.94h-2.86a1.44,1.44,0,0,1-1.56-1l-2.92-6.7c1.84.11,2.92.11,5,.11,3.13,0,4.43-1,4.75-5.29.49-6.05.65-13.72.71-23.33h-9.67A49.92,49.92,0,0,1,137,92.3a1.19,1.19,0,0,1-.92.49,1.63,1.63,0,0,1-.81-.27l-4.8-3v11.28l.16,17.29h-7.18v-2.76Zm5.89-29h-5.89v7.72h5.89Zm0,14h-5.89v8.53h5.89Zm16.79-7,.65.16a38.31,38.31,0,0,1,6.53,9.29l-.27.49-5.94,3.45-.43-.21a46.67,46.67,0,0,0-6-9.56l.21-.54Z"/><path d="M189.75,88c0,.87,0,2-.06,2.81a56.46,56.46,0,0,0,7.18-6.59H175.44l-9.35.16-.37-.43V76.86l.48-.33,9.13.17h24l5.4-.27,3.78,5.07a1.46,1.46,0,0,1,.27.76,1.52,1.52,0,0,1-.43,1,122.53,122.53,0,0,1-11.88,12.1c-.87.76-1.14.76-1.95.22l-5-3.35c-.54,11.61-3.61,19.28-12.9,26.13a1.54,1.54,0,0,1-1,.38,2.62,2.62,0,0,1-1.19-.43l-7.19-3.67c11.29-6.48,13.56-13.39,13.34-26.62l.38-.44h8.32Z"/><path d="M252.43,78.91a5.67,5.67,0,0,1-1.08-3.24,5.48,5.48,0,1,1,5.51,5.45,6.27,6.27,0,0,1-2.65-.64,45.4,45.4,0,0,1-9.5,24.89c-4.27,5.46-10.37,9.56-18.58,13.18a2.74,2.74,0,0,1-1,.32c-.32,0-.59-.16-1.13-.59L217.38,113c9.24-3.08,15.23-6.81,19.66-12.16a31.72,31.72,0,0,0,6.8-14.09h-18.3l-8.27.16-.48-.32V79.13l.43-.38,8.21.16Zm1.94-3.24a2.47,2.47,0,0,0,2.49,2.43,2.46,2.46,0,0,0,0-4.91A2.48,2.48,0,0,0,254.37,75.67Z"/><path d="M268.5,114.77l.27-18.52V87l-.16-6.53.43-.38,7.94.16h17.61l7.72-.16.43.38-.16,7v15.22l.16,7.4-.38.43-8.2-.16H277.31v4.38Zm25.44-27.06H277.31v15.23h16.63Z"/><path d="M346.73,100.83H322.59l-8,.17-.37-.44V92.84l.48-.32,7.73.16h24.08l8.32-.16.43.38v7.66l-.38.44Z"/><path d="M398.92,90.36,406,90.2l.49.32v6.91l-.38.43-7.29-.16h-8c-.76,5-2,8.75-3.41,10.91a30.57,30.57,0,0,1-9.93,9.61,2.64,2.64,0,0,1-1.08.44,2.09,2.09,0,0,1-1-.38l-7.18-4c5.62-2.6,8.91-5.19,11.29-8.75a21.47,21.47,0,0,0,2.59-7.78h-9.77l-7.18.16-.38-.43V90.52l.48-.32,7.19.16h10.09V84.63c-3.34.49-6.75.87-10.15,1.25-1.24.1-1.35.05-1.84-.54l-4.37-5.57c11.5-1,21.11-2.8,29.38-5.88l.59.11,5.19,5.72-.11.59a73,73,0,0,1-10,2.81v7.24Z"/></g></g></svg>