<svg xmlns="http://www.w3.org/2000/svg" viewBox="0 0 1171.14 175.06"><defs><style>.cls-1{fill:#fff;}.cls-2{fill:#1a1a1a;}</style></defs><g id="レイヤー_2" data-name="レイヤー 2"><g id="レイヤー_1-2" data-name="レイヤー 1"><polygon class="cls-1" points="0.39 175.06 0.39 175.06 1171.14 175.06 1171.14 175.06 1171.14 96.86 1171.14 96.86 0.39 96.86 0.39 96.86 0.39 175.06"/><path class="cls-2" d="M19.38,158.42a99.27,99.27,0,0,0,33.41-11c-9,1.16-19.33,2.37-29.89,3.46l-.57-.32L20,143.7l.32-.57c3.33-.13,7.11-.39,11.08-.64V121.18l-.2-7.43.52-.44,7.16.19H44c.64-2.56,1.15-5.06,1.6-7.94l.58-.19,9.21,1.73.26.64c-.7,1.92-1.47,3.9-2.3,5.76H62l7.17-.19.51.44-.19,7.43v11.2a57.74,57.74,0,0,0,4-5.7h.71l6.33,4.42v.7a67.94,67.94,0,0,1-11,12.61l.25,13.44c0,7.1-2.69,8.64-13.5,8.64-1.34,0-1.47-.13-1.73-.77l-3-7.49c2.31,0,5.57-.06,6.79-.13,1.41-.13,1.72-.45,1.72-1.85v-4.36A92,92,0,0,1,25.78,166a1.9,1.9,0,0,1-2.3-1Zm40.7-37.82H40.5v2.56H60.08Zm0,8.77H40.5v2.69H60.08Zm0,8.89H40.5v3.59q9.8-.78,19.58-1.86Z"/><path class="cls-2" d="M97.87,147.09a61.13,61.13,0,0,0,9-9.72,88.33,88.33,0,0,0,7-11.2h-3l-10.3.19-.45-.45v-7.36l.45-.45,10.3.2h5.51V106.2l.45-.45h7.8l.45.45v12.1h7.1l10.37-.2.39.45v7.36l-.39.45-10.37-.19H128a59,59,0,0,0,16.64,20.48L139,154.2a1.09,1.09,0,0,1-.83.51A1.67,1.67,0,0,1,137,154q-2-2.4-3.84-4.8v6l-.32.32-7-.19h-.71l.26,11.71h-9.28l.25-11.71h-.57l-7.3.19-.45-.38v-5.51a53,53,0,0,1-4.35,5,1.41,1.41,0,0,1-1,.51,1.09,1.09,0,0,1-.83-.51l-4-5v17.41h-9l.32-19.77v-7.11a35.13,35.13,0,0,1-2.43,4.67,1,1,0,0,1-.83.64c-.32,0-.58-.25-.7-.7L82.9,136a91.29,91.29,0,0,0,10.88-29.89l.57-.32,8,1.73.32.58a135.41,135.41,0,0,1-4.8,15.48Zm17.86,1.09h.7l.32-13a66.55,66.55,0,0,1-7.49,12.8Zm16.51-.19a60.33,60.33,0,0,1-7.55-14.14l.25,14.33h.84Z"/><path class="cls-2" d="M183.07,107.1l.45-.51h7.17l.45.44v9.86l1.47-1.73h.77l.38.26a57.93,57.93,0,0,0,2.75-7.94l.77-.19,4.42,1.6.25.83a77.59,77.59,0,0,1-3.77,8.83c.38.32.77.58,1.09.83q1.44-3,2.68-5.76l.77-.25,5,2.43.07.7c-1.54,2.88-3.27,6-5.06,9l.32-.32,3.52-.76.51.25a33,33,0,0,1,3,8.71l-.51.51-4.67,1.28-.52-.39a15.87,15.87,0,0,0-.31-1.79c-2.76.58-6,1.09-10.69,1.86l-.58-.45-1.09-3.14a72.18,72.18,0,0,0,.84,7.3h4.92a16,16,0,0,0-1.47-2.3l.26-.58,4.54-1.86.51.13a23.29,23.29,0,0,1,3.07,4.48l4.48-.06.45.38v6.14l-.45.39-9.47-.19h-5.56a34,34,0,0,0,1.72,5l.13.19a40.09,40.09,0,0,0,3.65-4.54l.58-.07,5.12,3.46.06.77a40.64,40.64,0,0,1-5.82,6.59c1,1.15,1.92,1.79,2.68,1.79,1,0,1.54-.7,2.05-5.82l4.8,3.13a1.61,1.61,0,0,1,.9,1.73c-.84,6.46-2.56,9.34-7.62,9.34-2.62,0-5.76-1-9.15-5.44a46.47,46.47,0,0,1-11,4.93,1.73,1.73,0,0,1-.77.13,1.49,1.49,0,0,1-1.27-.83l-3.65-5a44.54,44.54,0,0,0,13.05-5.51l-.57-1.15a48.1,48.1,0,0,1-2.82-8.7h-7c-.06,1.47-.19,2.88-.38,4.35l2.24-1.73.64.06a31.39,31.39,0,0,1,5.5,4.36l.06.64-4.73,4.09h-.71a48.14,48.14,0,0,0-3.71-3.52,23.31,23.31,0,0,1-8,12.61.94.94,0,0,1-.64.38c-.19,0-.32-.12-.51-.25L163,161.43l.13,5.63H154.6l.57-22.14a49.55,49.55,0,0,1-2.56,6.91c-.19.38-.44.58-.7.58a1.25,1.25,0,0,1-1-.71l-3.78-6.4a74.42,74.42,0,0,0,7.49-19.77l-6,.19-.44-.38v-7l.38-.38,6.4.19v-12l.32-.38h7l.38.38v11.9L166,118l2.49-3h.77a6.27,6.27,0,0,0,.71.45,79.74,79.74,0,0,0,3.13-8.19l.77-.13,4.41,1.67.26.83c-1.22,3.07-2.69,6.14-4.09,9,.38.32.83.64,1.21,1,.9-1.86,1.73-3.65,2.37-5.12l.64-.19,4.41,2.17Zm-2.68,29.44-.51-.39c-.07-.57-.2-1.21-.33-1.92-3.13.64-7,1.22-10.75,1.73l-.57-.45-1.54-4.8.45-.51c1-.06,2-.06,2.88-.13,1-1.66,1.86-3.33,2.81-5a65.93,65.93,0,0,0-5.31-4.29v4.61l-.32.32-4.54-.13v5.7l1.28-1h.58a70.56,70.56,0,0,1,5.44,8.13l6.65.13h8c-.19-1-.26-2.05-.38-3Zm-12.93,8.7-.45-.39v-3.39l-1.53,1.28-.52-.06c-.64-1.35-1.4-2.94-2.3-4.54v5l.32,18a23.32,23.32,0,0,0,5.38-5.82A21.68,21.68,0,0,0,171,145.17Zm9.21-15.81c.77-.06,1.54-.13,2.31-.25a14.17,14.17,0,0,0-.77-2.18C177.7,127.83,177.19,128.66,176.67,129.43Zm5.57-4a29.73,29.73,0,0,1,1.28,3c-.19-3.33-.32-6.59-.38-9.92-1.28,2.49-2.69,4.93-4.16,7.29l2.75-.57Zm11.91,3.46c.76-1.34,1.53-2.62,2.24-4-1.67-1.47-3.4-3-5.19-4.29.07,2.82.19,5.7.39,8.45C192.48,129,193.31,129,194.15,128.92Zm6.78-.64c.83-.13,1.66-.19,2.49-.32-.25-.77-.51-1.54-.83-2.3C202,126.55,201.44,127.45,200.93,128.28Z"/><path class="cls-2" d="M212.23,119.32c1.85-.06,3.58-.06,5.18-.13A96.37,96.37,0,0,0,222,105.63l.51-.26,8.51,2.18.26.64c-1.48,3.64-3.08,7.1-4.8,10.55,2.17-.12,4.35-.32,6.59-.51-.71-1.28-1.47-2.49-2.37-3.9l.13-.51,6.14-2.75.7.19a100,100,0,0,1,7.56,12.16l.06-2.69V107.16l.45-.51h7.81l.51.45v8.06a61.17,61.17,0,0,0,11-5.63l.64-.06,4.86,5.31v.7A95,95,0,0,1,254,122.71v2.69c0,2,0,2,4.22,2,5.83,0,6.34-.38,6.72-5.88l7,2.68c.64.26.7.45.64,1.09-.26,4.1-.83,5.89-2.56,7.49s-4,2.5-12.41,2.5c-10.82,0-12.61-.71-12.61-8.26l.06-2.43L238.21,128l-.58-.19c-.44-1.15-1-2.24-1.4-3.27a205.34,205.34,0,0,1-21.95,2.44l-.52-.39-1.92-6.72Zm12,34.17V166.1h-8.64l.32-15.17v-14.2l-.2-7.94.45-.45,8.19.2h8.77l8.19-.2.45.45-.19,7.94V146.9l.32,11.52c0,6.15-3.59,7.62-10.69,7.62-1,0-1.09-.13-1.34-.71l-2.82-7c2,0,3.84-.07,5.12-.19.83-.07,1.09-.32,1.09-1.35v-3.33Zm9-18.43h-9v3.14h9Zm0,9.28h-9v3h9Zm20.8-.19a76.5,76.5,0,0,0,11-5.57l.64-.06,4.86,5.31v.7A95.86,95.86,0,0,1,254,151.77v3.71c0,2,0,2,4.22,2,5.83,0,6.34-.38,6.72-6.21l7,2.69c.64.26.7.45.64,1.09-.26,4.1-.83,6.34-2.56,7.94s-4,2.49-12.41,2.49c-10.82,0-12.61-.7-12.61-8.25l.19-6.28V137.18l.45-.52h7.81l.51.45Z"/><path class="cls-2" d="M275.89,144.22c6.16-5,10.51-9.24,13.7-14-2.64.22-5.39.27-8,.27l-.33-.33-.22-6.76.39-.33c4.12,0,8.19-.11,12.26-.39a57,57,0,0,0,2.59-7.37l.44-.27,7.53,1.1.33.38c-.66,1.93-1.32,3.58-1.92,5.17,2.75-.44,5.5-.93,8.24-1.59l.5.27.55,6.49-.33.5c-4,.82-8.52,1.54-13.09,2.09-.88,1.32-2.09,3-3.19,4.34a16.23,16.23,0,0,1,5.17-.71,6.74,6.74,0,0,1,6.71,5.27c3.47-1.32,7.37-2.69,11.66-4.12l.55.22,3.41,6.76-.28.5c-5.55,1.43-10.28,2.86-14.35,4.34.11,2.15.17,4.84.22,7.48l-.38.33-7.26.28-.44-.33v-4.51c-3.36,1.59-5.23,3.13-5.23,5s2.2,2.37,7.1,2.42a98.43,98.43,0,0,0,14.35-1.15l.55.33.49,7.31-.33.44c-5.22.44-9.84.72-16.27.72-11.11,0-14-4.68-14-9.41,0-5.28,4.46-9,9.57-11.88q1.49-.83,3.3-1.65a2.42,2.42,0,0,0-2.75-2.09,10.52,10.52,0,0,0-6.27,1.93,81.17,81.17,0,0,0-9.57,8.91l-.55.05-4.84-5.39Z"/><path class="cls-2" d="M345.29,115.67a99.17,99.17,0,0,0,3.14-10.56l.57-.25,9,1.66.19.77c-1.34,3.2-2.43,5.69-3.77,8.38h18.17l8.64-.19.45.45-.19,10.37v19.19l.25,12.29c0,6-2.81,8.07-12.73,8.07-1.35,0-1.54-.13-1.79-.77l-3.33-7.87a56.06,56.06,0,0,0,6.78-.2c1-.12,1.35-.38,1.35-1.92V123.61H338.7v42.81h-9.54l.32-18.56V126.3l-.19-10.37.51-.45,8.58.19Zm5.7,34.56v3.84h-8.26l.19-12.93v-7.36l-.13-5.05.39-.45,5,.13h13.5l5.63-.13.45.45-.13,5.05v7.43l.2,11.9h-8.51v-2.88Zm8.32-14.85H351v7.81h8.32Z"/><path class="cls-2" d="M430.35,125.46l8.77-.19.38.32v8.07l-.38.32-8.77-.2H419.66v21.89h15.68l10.05-.19.38.32v8.06l-.44.45-10-.19H397.91l-10,.19-.45-.38V155.8l.39-.32,10.05.19h11.84V107.42l.44-.51h9l.44.44v18.11Z"/><path class="cls-2" d="M471.31,143.34a43.26,43.26,0,0,0,4.51-.61c1.16-.22,1.54-.49,1-1.59-1-2-2.47-4.46-4.18-7.15a90.89,90.89,0,0,1-19.52,2.47l-.44-.38-1.26-6.6.33-.38a92.69,92.69,0,0,0,16.33-2c-2-2.75-4.18-5.66-6.6-8.63l.11-.5,7.09-2.64.55.06c2.31,2.91,4.68,6.16,7,9.46a64.08,64.08,0,0,0,9.46-4.18l.55.11,3.35,6.71-.22.49a87.86,87.86,0,0,1-8.63,3.63c2.36,3.74,4.45,7.2,5.88,9.84a7.61,7.61,0,0,1,1,3.74c0,2.48-2.47,3.91-4.67,3.91a5.43,5.43,0,0,1-2.86-.88c-1.93-1.1-3.41-1.82-8.64-3Zm-19.63,7.92,5.89-3.69.49.11c3.08,5.56,10.34,7.15,17.71,7.15,1.92,0,3.79-.11,6.6-.33l.27.39-1.81,8.19-.5.28c-1.87.11-3.35.11-5.55.11-10.89,0-19-4-23.15-11.72Z"/><path class="cls-2" d="M505.4,121.62l.49-.39H513l.44.39v9.73c4-.77,8-1.54,12-2.2.05-4.34.05-8.74,0-12.32l.38-.38h7.37l.38.38c0,3.36,0,7.21,0,11.06,2.91-.5,6-.88,9-1.27l.5.33.88,6.71-.44.44c-3.47.39-6.88.77-10,1.21-.27,8.8-1.1,10.83-2.31,12.21a7.59,7.59,0,0,1-6.43,2.91,19.82,19.82,0,0,1-5-.6c-.6-.17-.77-.33-.82-.77l-1.16-6.77a23,23,0,0,0,5.17.72c1,0,1.49-.28,1.76-.77s.61-2.2.72-5.72c-4,.6-8,1.43-11.94,2.2v11.11c0,3.46.72,4.12,7.1,4.12a122.83,122.83,0,0,0,17.32-1.37l.44.38.49,7.54-.38.49a131.16,131.16,0,0,1-17.6.94c-11.77,0-15.29-2.86-15.29-10.23V140.64c-2.8.72-5.72,1.49-8.79,2.37l-.61-.17-1.76-6.59.22-.5c3.74-.94,7.37-1.81,10.89-2.64Z"/><path class="cls-2" d="M552.73,128.22l-1.43-7,.33-.5c8.36-1.87,16.83-3.19,22.82-4a5,5,0,0,1,5.06,4.79,3.8,3.8,0,0,1-1,2.86c-4.45,4.4-7.53,7.2-12.1,11.71a13.61,13.61,0,0,1,6.88-1.43c8.3,0,13.86,5.66,13.86,14.19,0,10-7.54,15.67-20.24,15.67-6.49,0-12-2.69-12-9,0-3.58,4-7.65,8.42-7.65,6.54,0,9.67,4.29,11.16,8.14,3.24-1.54,4.23-4.12,4.23-8s-2.91-6.93-7.48-6.93c-7.86,0-13.52,5.17-19.35,12.7l-.55.06-5.89-4.73-.05-.61c7.59-8.69,14.52-16.27,21.83-23.53-4.18.88-9,2-14.08,3.46Zm11.17,26.12c-1.1,0-2.09.44-2.09,1.43,0,1.15,1.26,2.2,4.07,2.2a7.18,7.18,0,0,0,1.75-.17A4.19,4.19,0,0,0,563.9,154.34Z"/><path class="cls-2" d="M609.63,129.75l-8.77.19-.45-.51v-8.19l.58-.38,8.7.19H624.6l-.19-9.66.45-.45H634l.51.45.19,9.66h3.52l9.15-.19.58.38v8.19l-.45.51-9.34-.19h-3.33l.45,24.32c.06,4.8-1.67,8.51-13,8.83-1.6,0-1.67-.06-2.18-1.15l-4-8.58c3.9,0,6.14-.06,8-.19.64-.06,1.09-.51,1.09-2l-.07-9.4.26-4.8a83.31,83.31,0,0,1-22.66,19.77c-1,.58-1.4.64-2.11.07L594,150.74c10.49-6.14,18.56-12.67,24.89-21Z"/><path class="cls-2" d="M656.89,123.35l6.21-7,.64-.13a67.66,67.66,0,0,1,13,8.83v.64l-6.66,7.74-.57.07a75.19,75.19,0,0,0-12.54-9.6Zm49.6,5.31a3.5,3.5,0,0,1,.25,1.22c0,.45-.19.7-.64,1.15-11.39,12.54-25.27,21.89-42.17,29.57l-.64-.13-5.76-8.64.13-.64c15.87-6.08,32.25-17.34,45.31-32.57Z"/><path class="cls-2" d="M715.58,134.3v-8.39l.57-.38,8.77.19H749.5l9-.19.44.51c-2.24,20.29-11.9,31-29.69,37.18a5,5,0,0,1-1.34.32,2.1,2.1,0,0,1-1.48-.7l-7.23-6c14.72-4.48,24.32-11.2,27.14-22.2H724.86l-8.83.19Zm28.73-13.44H729.53l-7.81.19-.45-.51v-8.26l.58-.38,7.74.19h14.47l8.83-.19.51.45v8.19l-.45.51Z"/><path class="cls-2" d="M792,135c-4.86,3.46-9.92,6.72-15.55,10-1.28.71-1.6.71-2.75-.25l-6.85-5.95c15-7.3,26.94-15.24,38.59-28.87h.77l8,5.57.06.77c-4.09,4.22-8.06,7.87-11.84,11.07V142.1l.32,20.1H791.69l.32-19.91Z"/><path class="cls-2" d="M822.25,123.35l6.21-7,.64-.13a67.66,67.66,0,0,1,13,8.83v.64l-6.65,7.74-.58.07a75.19,75.19,0,0,0-12.54-9.6Zm49.6,5.31a3.55,3.55,0,0,1,.26,1.22c0,.45-.2.7-.64,1.15-11.4,12.54-25.28,21.89-42.18,29.57l-.64-.13-5.76-8.64.13-.64c15.87-6.08,32.26-17.34,45.31-32.57Z"/><path class="cls-2" d="M898,128.41c-5.18,10.24-11.77,18.94-18.62,24.57a1.44,1.44,0,0,1-1,.45,2.08,2.08,0,0,1-1-.38l-8.58-5.19c8.32-5.76,15.11-14.65,19.46-24.64l.57-.12,9,4.6Zm6.15-.9,8.13-4.41.7.12a78.16,78.16,0,0,1,15.74,20.61l-.13.58-9.47,5.69-.57-.13a81.81,81.81,0,0,0-14.53-21.75Zm24.38-11.13a6.24,6.24,0,1,1-6.21-6.27A6.25,6.25,0,0,1,928.56,116.38Zm-9,0a2.79,2.79,0,0,0,2.81,2.75,2.79,2.79,0,0,0,0-5.57A2.8,2.8,0,0,0,919.54,116.38Z"/><path class="cls-2" d="M973.85,141.91h-28.6l-9.54.19-.44-.51v-9.15l.57-.38,9.15.19h28.54l9.86-.19.51.44v9.09l-.45.51Z"/><path class="cls-2" d="M988.68,119.58l7.49-5.06h.7a68,68,0,0,1,10.56,12.42l-.13.7-8.19,5.63-.7-.13a65.89,65.89,0,0,0-9.86-13Zm35.26-6.53,9.47,2.88.26.57c-4.23,20-13.82,35.2-30,45.7a3.79,3.79,0,0,1-1.41.57,2.74,2.74,0,0,1-1.28-.44l-8.64-4.61c17.92-10.24,27.2-24.19,30.91-44.48Z"/><path class="cls-2" d="M1064.27,110.43l.51-.45h9.47l.51.51v12.93h7.56l9.85-.2.51.45v8.45l-.45.51-10.17-.19h-7.49c-.51,7.81-1.92,13.63-4.73,18-3.65,5.89-8.77,10-15,13.12a3.26,3.26,0,0,1-.9.26,1.88,1.88,0,0,1-1.09-.51l-7.93-5.83c6.4-2.49,11.45-5.76,15-10.81,2.11-3,3.52-7.49,4.09-14.21h-12.09l-9.15.19-.45-.51v-8.45l.51-.45,9,.2h12.42Z"/><path class="cls-2" d="M1091.48,154.39c8.57-7.36,13.37-18.24,13.82-32.57l.58-.45,9,.77.51.51c-.7,15.23-5.89,26.75-13.37,35.07-.64.64-1,.89-1.41.89a2,2,0,0,1-1-.32Zm37.82-11.65A88.19,88.19,0,0,0,1149,124.5l2.82,9.41a5.77,5.77,0,0,1,.31,1.41,1.66,1.66,0,0,1-.57,1.15c-6.21,6.85-13.18,12.93-24.19,19.9a3,3,0,0,1-1.47.64c-.32,0-.58-.19-1-.51l-6.21-5,.52-7.23V116.76l.51-.45h9.09l.51.51Z"/><polygon class="cls-1" points="0 77.88 0 77.88 620.19 77.88 620.19 77.88 620.19 0 620.19 0 0 0 0 0 0 77.88"/><path class="cls-2" d="M62.07,15.1l11.13-.19.52.45c-.13,10.94-.39,20.35-1.22,27.45-1,8.32-2.88,10.95-10.75,10.95H59.06a1.71,1.71,0,0,1-1.85-1.22l-1.67-3.39-7-.19H36.86v9.4c0,1.54.25,1.86,15,1.86,14.21,0,16.06-.32,17.34-1.34s1.54-2.63,1.86-6.72l7.55,3.45c.7.32.77.51.7,1.28-.32,4.67-1.21,7-3.07,8.58-2.69,2.24-4.86,2.69-25.08,2.69-22.27,0-23.36-1.22-23.36-7l.13-7V48.57l-.2-6.65.45-.45,7.17.19H47.09V35.13H38.77l-8.38.2-.45-.39V31c-1,1.21-1.85,2.3-2.75,3.26a1.4,1.4,0,0,1-1,.58,1.94,1.94,0,0,1-1.09-.45L19,30.08a61.5,61.5,0,0,0,14.4-22L33.91,8,42,10.62l.06.71c-.57,1.28-1.15,2.56-1.79,3.77ZM35.7,23c-1,1.53-2,3-3.07,4.48l6.14.13h9.67l7.23-.2.45.45-.19,6.21v8L56,45.25c1.28,0,2.56,0,3.39-.07,2.43-.19,3.33-1.15,3.78-5.57s.64-11.52.7-16.57Z"/><path class="cls-2" d="M113.8,34.11l-9,.19-.45-.38V28.8l-5.18-.13v8.45c2.56-.71,4.93-1.47,6.85-2.11l.13,6.4c0,1.15-.26,1.6-1.35,2-1.47.58-3.45,1.22-5.63,1.92v1l.32,13.95c0,7.55-2.56,9.66-11.52,9.66-.77,0-1-.12-1.21-.76l-3.59-8a45.25,45.25,0,0,0,5.63-.26c1.35-.13,1.73-.51,1.73-2V48c-1.85.57-3.65,1.08-5.25,1.53l-.57-.32-2.56-7.48.32-.58c2.56-.51,5.31-1.15,8.06-1.79V28.61l-7.1.19L83,28.41v-7l.38-.38,7.17.19V9l.51-.51h7.55l.58.45V21.18l5.89-.12.38.32v5.05l8.32.19h5v-7c-3.26.32-6.52.64-9.53.83-.83.06-1.28-.06-1.67-.77L104,13.38c11.58-.45,22.39-1.92,29.43-3.78l.64.06a71.29,71.29,0,0,1,7,5.76l-.12.64c-3.91.84-8.32,1.67-12.87,2.37v8.19h6.53l8.45-.19.38.32V34l-.38.32-8.45-.19h-6.53v8h2.82l8.06-.19.45.45-.19,6.78v6.46l.32,13.12H130v-4H116.81v4.42h-9.28l.38-13.76V49.15l-.25-6.78.45-.45,8.12.19h2.56v-8ZM130,49H116.81V57.4H130Z"/><path class="cls-2" d="M156.16,62v4.67h-8.32l.32-21.5V28.48L148,20.16l.38-.45,5.89.19a93.28,93.28,0,0,0,2.43-10.68l.45-.32,8.64,1.34.25.58c-1.09,3.58-2.11,6.46-3.2,9.08h1.73l6.66-.19.44.45-.19,8.32v1.66A67.34,67.34,0,0,0,181.56,8.77l.52-.13,8.38,2.11.13.71c-.9,2.81-1.8,5.37-2.82,7.8h6.72l9.86-.19.51.45c0,16.25-.19,28.86-1.22,38.59-.89,8.32-4.41,11.77-11.77,11.77h-3.4a1.71,1.71,0,0,1-1.85-1.21l-3.46-7.94c2.18.13,3.46.13,6,.13,3.71,0,5.24-1.22,5.63-6.27.57-7.17.76-16.26.83-27.65H184.12a60.34,60.34,0,0,1-4.92,7.68,1.43,1.43,0,0,1-1.09.58,1.92,1.92,0,0,1-1-.32l-5.7-3.52V44.73l.19,20.48h-8.51V62Zm7-34.37h-7v9.15h7Zm0,16.58h-7V54.27h7ZM183,35.9l.76.19a45.43,45.43,0,0,1,7.75,11l-.32.58-7,4.09-.51-.25a55.84,55.84,0,0,0-7.11-11.33l.26-.64Z"/><path class="cls-2" d="M234,19.32c-.49,2.2-1.1,4.35-1.59,6.33,1.92-.39,3.85-.83,5.77-1.32l.5.22,1,4.84a45.75,45.75,0,0,1,17,4.29l.16.55-2.25,6.1-.44.22a9.1,9.1,0,0,0-4.46-.93c-3.52,0-6.54,1.37-6.54,3.85,0,1.7.82,4.23,2.42,8.19a52.44,52.44,0,0,1,12,7v.55L253,65.19l-.5,0A52.65,52.65,0,0,0,246.08,60c-.17,4.45-5,7.37-11.22,7.37-7.15,0-11.55-2.86-11.55-8.58,0-5.17,4.4-8.8,10.28-8.8a18.31,18.31,0,0,1,3.58.28c-.83-2.81-1.32-4.57-1.21-6.71.11-3,2.91-5.5,7.48-6.88a72.64,72.64,0,0,0-7.48-.77l-.28-.38,1.38-3.14c-2.37.5-4.79,1-7.21,1.32a96.42,96.42,0,0,1-13,24.2l-.55.11-6.49-4.18v-.49A72.64,72.64,0,0,0,221,34.78c-2.86.27-5.78.44-8.8.49l-.44-.33-.17-6.76.39-.39c4.18-.11,8.08-.38,11.82-.77a81.8,81.8,0,0,0,2.09-9.12l.49-.34,7.37,1.27Zm-.66,37.07c-1.87,0-3,1.15-3,2.09,0,1.32,1.21,2.2,3.19,2.2,3.14,0,4.95-1.1,4.9-3.3A9.74,9.74,0,0,0,233.37,56.39Z"/><path class="cls-2" d="M291.47,29.5c0,1,0,2.37-.06,3.33A67.74,67.74,0,0,0,299.92,25H274.51l-11.07.19L263,24.7V16.32l.57-.38,10.82.19h28.47l6.4-.32,4.48,6a1.73,1.73,0,0,1,.32.9,1.8,1.8,0,0,1-.51,1.21,144.1,144.1,0,0,1-14.08,14.34c-1,.9-1.34.9-2.3.26l-5.89-4c-.64,13.76-4.29,22.84-15.29,31a1.9,1.9,0,0,1-1.16.45,3.12,3.12,0,0,1-1.4-.51l-8.52-4.35c13.38-7.68,16.07-15.87,15.81-31.55l.45-.52H291Z"/><path class="cls-2" d="M364.61,18.75a6.72,6.72,0,0,1-1.28-3.84,6.5,6.5,0,1,1,6.53,6.47,7.31,7.31,0,0,1-3.14-.77c-1,11.07-4.54,21-11.26,29.5-5.06,6.46-12.29,11.33-22,15.61a3.16,3.16,0,0,1-1.22.39c-.38,0-.7-.19-1.34-.71l-7.81-6.27c10.94-3.65,18-8.06,23.29-14.4A37.62,37.62,0,0,0,354.44,28h-21.7l-9.79.19-.58-.38V19l.52-.45,9.72.19Zm2.31-3.84a2.92,2.92,0,0,0,2.94,2.88,2.91,2.91,0,0,0,0-5.82A2.93,2.93,0,0,0,366.92,14.91Z"/><path class="cls-2" d="M382.51,61.24l.32-22V28.35l-.19-7.74.51-.45,9.41.19h20.86l9.16-.19.51.45-.19,8.32V47l.19,8.77-.45.51-9.73-.19H393v5.18Zm30.15-32.06H393v18h19.71Z"/><path class="cls-2" d="M474.05,44.73h-28.6l-9.54.2-.45-.52V35.26l.58-.38,9.15.19h28.54l9.86-.19.51.45v9.08l-.45.52Z"/><path class="cls-2" d="M534.77,32.32l8.38-.19.58.38V40.7l-.45.51L534.64,41h-9.47c-.9,5.95-2.37,10.37-4,12.93a36.17,36.17,0,0,1-11.78,11.39,3,3,0,0,1-1.28.51,2.37,2.37,0,0,1-1.15-.45l-8.51-4.8c6.65-3.07,10.56-6.14,13.37-10.36A25.49,25.49,0,0,0,514.87,41H503.28l-8.51.19-.45-.51V32.51l.58-.38,8.51.19h12V25.53c-4,.58-8,1-12,1.48-1.48.12-1.6.06-2.18-.64L496,19.77c13.63-1.21,25-3.32,34.81-7l.7.13,6.15,6.78-.13.71a88.34,88.34,0,0,1-11.84,3.32v8.58Z"/><path class="cls-2" d="M552.41,38.19l-1.81-7.26.22-.44c15.34-3.74,27.6-6.27,43.11-9.08l.5.28L596,29l-.38.5c-6.11.44-11.44,1.54-14.8,4.29-5.11,4.12-8,9.13-8,14.3,0,4.23,2.09,6.43,5.33,7.42,3,.93,7.43,1.26,13.15,1.21l.38.38-.44,8.36-.44.33c-6.87.11-12.87-.6-17.37-2.53-5.45-2.31-8.86-6.93-8.86-14.4A20.92,20.92,0,0,1,572,33.35c-5.39,1.32-11.27,2.86-19.08,5.06Zm34.81.11,2.86-2,.55,0A34.88,34.88,0,0,1,596.24,42l0,.55-3,2.14h-.55a34.7,34.7,0,0,0-5.44-5.94Zm5.17-3.47,2.81-2,.55-.06a33.66,33.66,0,0,1,5.44,5.67l-.05.55-2.86,2.09h-.55a33.11,33.11,0,0,0-5.39-5.72Z"/></g></g></svg>