<svg id="レイヤー_1" data-name="レイヤー 1" xmlns="http://www.w3.org/2000/svg" width="60" height="60" viewBox="0 0 60 60"><defs><style>.cls-1{fill:#fff;}</style></defs><title>ic_envelope_white</title><path class="cls-1" d="M30,40.36H30c-3.39,0-6.63-2.27-9.29-4.23L2.78,51.48a5.13,5.13,0,0,0,3.4,1.31H53.82a5.13,5.13,0,0,0,3.4-1.31L39.32,36.13C36.66,38.09,33.42,40.36,30,40.36Z"/><path class="cls-1" d="M59,47.61V21.91a19.06,19.06,0,0,1-3.24,2.82c-4.39,3-8.79,6-13.11,9L59,47.75S59,47.66,59,47.61Z"/><path class="cls-1" d="M4.27,24.72A18.1,18.1,0,0,1,1,21.91v25.7s0,.1,0,.15l16.34-14C13,30.67,8.63,27.69,4.27,24.72Z"/><path class="cls-1" d="M53.82,7.21H6.18C2.72,7.21,1,9.93,1,13.1c0,2.95,3.27,6.6,5.57,8.16,4.64,3.24,9.34,6.47,14,9.74l1.12.78c.63.44,1.39,1,2.21,1.59,1.94,1.38,4.23,2.84,6.07,2.84H30c1.84,0,4.14-1.46,6.07-2.84.82-.59,1.58-1.16,2.21-1.59L39.44,31c4.65-3.26,9.35-6.5,14-9.74C56.31,19.29,59,16,59,12.39A5.21,5.21,0,0,0,53.82,7.21Z"/></svg>