<svg id="レイヤー_1" data-name="レイヤー 1" xmlns="http://www.w3.org/2000/svg" width="60" height="60" viewBox="0 0 60 60"><defs><style>.cls-1{fill:#fff;}</style></defs><title>ic_twitter_white</title><path class="cls-1" d="M51,19.25c0,.47,0,.94,0,1.41C51,35,40.11,51.43,20.22,51.43A30.56,30.56,0,0,1,3.62,46.57a22.34,22.34,0,0,0,2.61.13,21.66,21.66,0,0,0,13.42-4.62,10.83,10.83,0,0,1-10.11-7.5,13.74,13.74,0,0,0,2,.17,11.43,11.43,0,0,0,2.85-.37A10.82,10.82,0,0,1,5.76,23.77v-.13A10.9,10.9,0,0,0,10.65,25,10.83,10.83,0,0,1,7.3,10.55,30.74,30.74,0,0,0,29.6,21.87a12.17,12.17,0,0,1-.27-2.48A10.82,10.82,0,0,1,48,12a21.3,21.3,0,0,0,6.86-2.61,10.78,10.78,0,0,1-4.75,6,21.69,21.69,0,0,0,6.23-1.67A23.26,23.26,0,0,1,51,19.25Z"/></svg>